<mxfile host="65bd71144e" scale="1.2" border="0">
    <diagram id="Aivqml-ADPJbA_GyeIOO" name="Page-1">
        <mxGraphModel dx="1118" dy="446" grid="1" gridSize="10" guides="1" tooltips="1" connect="1" arrows="1" fold="1" page="1" pageScale="1" pageWidth="827" pageHeight="1169" background="#FFFFFF" math="0" shadow="0">
            <root>
                <mxCell id="0"/>
                <mxCell id="1" parent="0"/>
                <mxCell id="738" value="" style="edgeStyle=orthogonalEdgeStyle;rounded=0;orthogonalLoop=1;jettySize=auto;html=1;entryX=0.5;entryY=0;entryDx=0;entryDy=0;fillColor=#FFFFFF;strokeColor=#000000;fontColor=#000000;labelBackgroundColor=none;" edge="1" parent="1" source="739" target="742">
                    <mxGeometry relative="1" as="geometry">
                        <mxPoint x="380.02857142857135" y="150" as="targetPoint"/>
                    </mxGeometry>
                </mxCell>
                <mxCell id="739" value="start" style="ellipse;whiteSpace=wrap;html=1;fillColor=#E6FFCC;fontSize=11;strokeColor=#000000;fontColor=#000000;rounded=0;labelBackgroundColor=none;endArrow=classic;" vertex="1" parent="1">
                    <mxGeometry x="340" y="100" width="80" height="40" as="geometry"/>
                </mxCell>
                <mxCell id="740" value="CreateSwappedMatrix" style="shape=process;whiteSpace=wrap;html=1;backgroundOutline=1;size=0.029411764705882353;fillColor=#CCE5FF;fontSize=11;strokeColor=#000000;fontColor=#000000;rounded=0;labelBackgroundColor=none;endArrow=classic;" vertex="1" parent="1">
                    <mxGeometry x="280" y="60" width="200" height="30" as="geometry"/>
                </mxCell>
                <mxCell id="741" value="" style="edgeStyle=orthogonalEdgeStyle;rounded=0;orthogonalLoop=1;jettySize=auto;html=1;fillColor=#FFFFFF;strokeColor=#000000;fontColor=#000000;labelBackgroundColor=none;" edge="1" parent="1" source="742" target="743">
                    <mxGeometry relative="1" as="geometry"/>
                </mxCell>
                <mxCell id="742" value="arr, row1, row2" style="shape=parallelogram;perimeter=parallelogramPerimeter;whiteSpace=wrap;html=1;fixedSize=1;fillColor=#FFFFCC;fontSize=11;strokeColor=#000000;fontColor=#000000;rounded=0;labelBackgroundColor=none;endArrow=classic;" vertex="1" parent="1">
                    <mxGeometry x="300" y="160" width="160" height="40" as="geometry"/>
                </mxCell>
                <mxCell id="743" value="rows = Dimension1(arr)&lt;br&gt;columns = Dimension2(arr)&lt;br&gt;swappedArray[]" style="whiteSpace=wrap;html=1;fillColor=#FFFFFF;fontSize=11;strokeColor=#000000;fontColor=#000000;rounded=0;labelBackgroundColor=none;endArrow=classic;" vertex="1" parent="1">
                    <mxGeometry x="300" y="230" width="160" height="50" as="geometry"/>
                </mxCell>
                <mxCell id="744" style="edgeStyle=none;rounded=0;orthogonalLoop=1;jettySize=auto;html=1;exitX=1;exitY=0.5;exitDx=0;exitDy=0;fillColor=#FFFFFF;strokeColor=#000000;fontColor=#000000;labelBackgroundColor=none;" edge="1" parent="1" source="746" target="755">
                    <mxGeometry relative="1" as="geometry">
                        <Array as="points">
                            <mxPoint x="730" y="333"/>
                        </Array>
                    </mxGeometry>
                </mxCell>
                <mxCell id="745" value="" style="edgeStyle=orthogonalEdgeStyle;rounded=0;orthogonalLoop=1;jettySize=auto;html=1;fillColor=#FFFFFF;strokeColor=#000000;fontColor=#000000;labelBackgroundColor=none;" edge="1" parent="1" source="746" target="760">
                    <mxGeometry relative="1" as="geometry"/>
                </mxCell>
                <mxCell id="746" value="i = 0, rows&amp;nbsp;- 1, 1" style="shape=hexagon;perimeter=hexagonPerimeter2;whiteSpace=wrap;html=1;fixedSize=1;fontSize=11;rounded=0;fillColor=#FFFFFF;strokeColor=#000000;fontColor=#000000;labelBackgroundColor=none;endArrow=classic;" vertex="1" parent="1">
                    <mxGeometry x="310" y="312.5" width="140" height="40" as="geometry"/>
                </mxCell>
                <mxCell id="747" style="edgeStyle=none;orthogonalLoop=1;jettySize=auto;html=1;exitX=1;exitY=0.5;exitDx=0;exitDy=0;fontSize=11;endArrow=classic;endFill=1;entryX=0;entryY=0.5;entryDx=0;entryDy=0;rounded=0;fillColor=#FFFFFF;strokeColor=#000000;fontColor=#000000;labelBackgroundColor=none;" edge="1" parent="1" source="749" target="746">
                    <mxGeometry relative="1" as="geometry">
                        <mxPoint x="380" y="632.5" as="targetPoint"/>
                        <Array as="points">
                            <mxPoint x="510" y="610"/>
                            <mxPoint x="510" y="720"/>
                            <mxPoint x="160" y="720"/>
                            <mxPoint x="160" y="333"/>
                        </Array>
                    </mxGeometry>
                </mxCell>
                <mxCell id="748" value="" style="edgeStyle=none;rounded=0;orthogonalLoop=1;jettySize=auto;html=1;endArrow=classic;endFill=1;fillColor=#FFFFFF;strokeColor=#000000;fontColor=#000000;labelBackgroundColor=none;" edge="1" parent="1" source="749" target="772">
                    <mxGeometry relative="1" as="geometry"/>
                </mxCell>
                <mxCell id="749" value="j = 0, columns&amp;nbsp;- 1, 1" style="shape=hexagon;perimeter=hexagonPerimeter2;whiteSpace=wrap;html=1;fixedSize=1;fontSize=11;rounded=0;fillColor=#FFFFFF;strokeColor=#000000;fontColor=#000000;labelBackgroundColor=none;endArrow=classic;" vertex="1" parent="1">
                    <mxGeometry x="310" y="590" width="140" height="40" as="geometry"/>
                </mxCell>
                <mxCell id="750" style="edgeStyle=none;orthogonalLoop=1;jettySize=auto;html=1;entryX=0;entryY=0.5;entryDx=0;entryDy=0;fontSize=11;rounded=0;fillColor=#FFFFFF;strokeColor=#000000;fontColor=#000000;labelBackgroundColor=none;" edge="1" parent="1" target="749">
                    <mxGeometry relative="1" as="geometry">
                        <Array as="points">
                            <mxPoint x="380" y="700"/>
                            <mxPoint x="180" y="700"/>
                            <mxPoint x="180" y="610"/>
                        </Array>
                        <mxPoint x="380" y="680" as="sourcePoint"/>
                    </mxGeometry>
                </mxCell>
                <mxCell id="751" value="" style="edgeStyle=none;rounded=0;orthogonalLoop=1;jettySize=auto;html=1;entryX=0.5;entryY=0;entryDx=0;entryDy=0;exitX=0.5;exitY=1;exitDx=0;exitDy=0;fillColor=#FFFFFF;strokeColor=#000000;fontColor=#000000;labelBackgroundColor=none;" edge="1" parent="1" source="743" target="746">
                    <mxGeometry relative="1" as="geometry">
                        <mxPoint x="440" y="310" as="targetPoint"/>
                        <mxPoint x="380" y="300" as="sourcePoint"/>
                    </mxGeometry>
                </mxCell>
                <mxCell id="752" value="end" style="ellipse;whiteSpace=wrap;html=1;fillColor=#FFCCCC;rounded=0;fontSize=11;strokeColor=#000000;fontColor=#000000;labelBackgroundColor=none;endArrow=classic;" vertex="1" parent="1">
                    <mxGeometry x="690" y="420" width="80" height="40" as="geometry"/>
                </mxCell>
                <mxCell id="753" value="метод меняет местами две строки массива." style="rounded=0;whiteSpace=wrap;html=1;fillColor=#E6E6E6;fontSize=11;strokeColor=#000000;fontColor=#000000;labelBackgroundColor=none;endArrow=classic;" vertex="1" parent="1">
                    <mxGeometry x="230" y="20" width="300" height="30" as="geometry"/>
                </mxCell>
                <mxCell id="754" value="" style="edgeStyle=none;rounded=0;orthogonalLoop=1;jettySize=auto;html=1;endArrow=classic;endFill=1;entryX=0.5;entryY=0;entryDx=0;entryDy=0;fillColor=#FFFFFF;strokeColor=#000000;fontColor=#000000;labelBackgroundColor=none;" edge="1" parent="1" source="755" target="752">
                    <mxGeometry relative="1" as="geometry"/>
                </mxCell>
                <mxCell id="755" value="swappedArray[]" style="shape=parallelogram;perimeter=parallelogramPerimeter;whiteSpace=wrap;html=1;fixedSize=1;fillColor=#FFFFCC;fontSize=11;strokeColor=#000000;fontColor=#000000;rounded=0;labelBackgroundColor=none;endArrow=classic;" vertex="1" parent="1">
                    <mxGeometry x="670" y="362.5" width="120" height="30" as="geometry"/>
                </mxCell>
                <mxCell id="756" style="edgeStyle=orthogonalEdgeStyle;rounded=0;orthogonalLoop=1;jettySize=auto;html=1;exitX=1;exitY=0.5;exitDx=0;exitDy=0;entryX=0.5;entryY=0;entryDx=0;entryDy=0;fillColor=#FFFFFF;strokeColor=#000000;fontColor=#000000;labelBackgroundColor=none;" edge="1" parent="1" source="760" target="765">
                    <mxGeometry relative="1" as="geometry"/>
                </mxCell>
                <mxCell id="757" value="NO" style="edgeLabel;html=1;align=center;verticalAlign=middle;resizable=0;points=[];fontColor=#000000;labelBackgroundColor=#FFFFFF;" vertex="1" connectable="0" parent="756">
                    <mxGeometry x="-0.6065" relative="1" as="geometry">
                        <mxPoint as="offset"/>
                    </mxGeometry>
                </mxCell>
                <mxCell id="758" value="" style="edgeStyle=orthogonalEdgeStyle;rounded=0;orthogonalLoop=1;jettySize=auto;html=1;fillColor=#FFFFFF;strokeColor=#000000;fontColor=#000000;labelBackgroundColor=none;" edge="1" parent="1" source="760" target="767">
                    <mxGeometry relative="1" as="geometry"/>
                </mxCell>
                <mxCell id="759" value="YES" style="edgeLabel;html=1;align=center;verticalAlign=middle;resizable=0;points=[];fontColor=#000000;labelBackgroundColor=#FFFFFF;" vertex="1" connectable="0" parent="758">
                    <mxGeometry x="-0.7657" relative="1" as="geometry">
                        <mxPoint y="14" as="offset"/>
                    </mxGeometry>
                </mxCell>
                <mxCell id="760" value="i = row1" style="rhombus;whiteSpace=wrap;html=1;rounded=0;fontSize=11;fillColor=#FFFFFF;strokeColor=#000000;fontColor=#000000;labelBackgroundColor=none;endArrow=classic;" vertex="1" parent="1">
                    <mxGeometry x="310" y="392.5" width="140" height="37.5" as="geometry"/>
                </mxCell>
                <mxCell id="761" value="" style="edgeStyle=orthogonalEdgeStyle;rounded=0;orthogonalLoop=1;jettySize=auto;html=1;fillColor=#FFFFFF;strokeColor=#000000;fontColor=#000000;labelBackgroundColor=none;" edge="1" parent="1" source="765" target="769">
                    <mxGeometry relative="1" as="geometry"/>
                </mxCell>
                <mxCell id="762" value="YES" style="edgeLabel;html=1;align=center;verticalAlign=middle;resizable=0;points=[];fontColor=#000000;labelBackgroundColor=#FFFFFF;" vertex="1" connectable="0" parent="761">
                    <mxGeometry x="-0.7224" y="-1" relative="1" as="geometry">
                        <mxPoint x="1" y="4" as="offset"/>
                    </mxGeometry>
                </mxCell>
                <mxCell id="763" value="" style="edgeStyle=orthogonalEdgeStyle;rounded=0;orthogonalLoop=1;jettySize=auto;html=1;fillColor=#FFFFFF;strokeColor=#000000;fontColor=#000000;labelBackgroundColor=none;" edge="1" parent="1" source="765" target="771">
                    <mxGeometry relative="1" as="geometry"/>
                </mxCell>
                <mxCell id="764" value="NO" style="edgeLabel;html=1;align=center;verticalAlign=middle;resizable=0;points=[];fontColor=#000000;labelBackgroundColor=#FFFFFF;" vertex="1" connectable="0" parent="763">
                    <mxGeometry x="-0.1842" y="-1" relative="1" as="geometry">
                        <mxPoint x="-29" y="-1" as="offset"/>
                    </mxGeometry>
                </mxCell>
                <mxCell id="765" value="i = row2" style="rhombus;whiteSpace=wrap;html=1;rounded=0;fontSize=11;fillColor=#FFFFFF;strokeColor=#000000;fontColor=#000000;labelBackgroundColor=none;endArrow=classic;" vertex="1" parent="1">
                    <mxGeometry x="450" y="440" width="140" height="37.5" as="geometry"/>
                </mxCell>
                <mxCell id="766" style="edgeStyle=orthogonalEdgeStyle;rounded=0;orthogonalLoop=1;jettySize=auto;html=1;exitX=0.5;exitY=1;exitDx=0;exitDy=0;entryX=0.5;entryY=0;entryDx=0;entryDy=0;fillColor=#FFFFFF;strokeColor=#000000;fontColor=#000000;labelBackgroundColor=none;" edge="1" parent="1" source="767" target="749">
                    <mxGeometry relative="1" as="geometry"/>
                </mxCell>
                <mxCell id="767" value="rowNumber = row2" style="whiteSpace=wrap;html=1;rounded=0;fontSize=11;fillColor=#FFFFFF;strokeColor=#000000;fontColor=#000000;labelBackgroundColor=none;endArrow=classic;" vertex="1" parent="1">
                    <mxGeometry x="320" y="477.5" width="120" height="31.25" as="geometry"/>
                </mxCell>
                <mxCell id="768" style="rounded=0;orthogonalLoop=1;jettySize=auto;html=1;exitX=0.5;exitY=1;exitDx=0;exitDy=0;endArrow=oval;endFill=1;fillColor=#FFFFFF;strokeColor=#000000;fontColor=#000000;labelBackgroundColor=none;" edge="1" parent="1" source="769">
                    <mxGeometry relative="1" as="geometry">
                        <mxPoint x="380" y="560" as="targetPoint"/>
                        <Array as="points">
                            <mxPoint x="520" y="560"/>
                        </Array>
                    </mxGeometry>
                </mxCell>
                <mxCell id="769" value="rowNumber = row1" style="whiteSpace=wrap;html=1;rounded=0;fontSize=11;fillColor=#FFFFFF;strokeColor=#000000;fontColor=#000000;labelBackgroundColor=none;endArrow=classic;" vertex="1" parent="1">
                    <mxGeometry x="460" y="510" width="120" height="30.62" as="geometry"/>
                </mxCell>
                <mxCell id="770" style="edgeStyle=none;rounded=0;orthogonalLoop=1;jettySize=auto;html=1;exitX=0.5;exitY=1;exitDx=0;exitDy=0;endArrow=oval;endFill=1;fillColor=#FFFFFF;strokeColor=#000000;fontColor=#000000;labelBackgroundColor=none;" edge="1" parent="1" source="771">
                    <mxGeometry relative="1" as="geometry">
                        <mxPoint x="520" y="560" as="targetPoint"/>
                        <Array as="points">
                            <mxPoint x="660" y="560"/>
                        </Array>
                    </mxGeometry>
                </mxCell>
                <mxCell id="771" value="rowNumber = i" style="whiteSpace=wrap;html=1;rounded=0;fontSize=11;fillColor=#FFFFFF;strokeColor=#000000;fontColor=#000000;labelBackgroundColor=none;endArrow=classic;" vertex="1" parent="1">
                    <mxGeometry x="600" y="510" width="120" height="30.62" as="geometry"/>
                </mxCell>
                <mxCell id="772" value="swappedArray[i, j] = arr[rowNumber, j]" style="whiteSpace=wrap;html=1;rounded=0;fontSize=11;fillColor=#FFFFFF;strokeColor=#000000;fontColor=#000000;labelBackgroundColor=none;endArrow=classic;" vertex="1" parent="1">
                    <mxGeometry x="270" y="650" width="220" height="40" as="geometry"/>
                </mxCell>
            </root>
        </mxGraphModel>
    </diagram>
</mxfile>